<?xml version="1.0" standalone="no"?>
<!DOCTYPE svg PUBLIC "-//W3C//DTD SVG 20010904//EN"
 "http://www.w3.org/TR/2001/REC-SVG-20010904/DTD/svg10.dtd">
<svg version="1.0" xmlns="http://www.w3.org/2000/svg"
 width="512.000000pt" height="512.000000pt" viewBox="0 0 512.000000 512.000000"
 preserveAspectRatio="xMidYMid meet">
<metadata>
Created by potrace 1.16, written by Peter Selinger 2001-2019
</metadata>
<g transform="translate(0.000000,512.000000) scale(0.100000,-0.100000)"
fill="#000000" stroke="none">
<path d="M490 2465 l0 -1085 234 0 c185 0 236 3 245 14 8 10 10 301 9 1082
l-3 1069 -242 3 -243 2 0 -1085z"/>
<path d="M1345 3518 c-4 -18 -5 -125 -3 -238 l3 -205 809 -3 c609 -1 812 1
817 10 4 6 6 39 5 72 -2 34 -3 136 -4 229 l-2 167 -810 0 -809 0 -6 -32z"/>
<path d="M3250 3310 l0 -240 283 0 282 0 -3 -829 c-3 -753 -2 -830 13 -845 14
-14 47 -16 234 -16 155 0 220 3 229 12 9 9 12 210 12 845 l0 833 284 0 283 0
5 233 c3 127 3 235 1 240 -2 4 -368 7 -814 7 l-809 0 0 -240z"/>
<path d="M1350 2475 l0 -245 810 0 810 0 0 245 0 245 -810 0 -810 0 0 -245z"/>
<path d="M1363 1873 c-10 -3 -13 -61 -13 -241 l0 -237 810 0 810 0 -2 240 -3
240 -795 2 c-437 0 -801 -1 -807 -4z"/>
</g>
</svg>
